<svg width="69" height="10" viewBox="0 0 69 10" fill="none" xmlns="http://www.w3.org/2000/svg">
<circle cx="1.63636" cy="1.63636" r="1.63636" fill="#6D73D2"/>
<rect x="4.09094" width="12.9091" height="3.27273" rx="1.63636" fill="#6D73D2"/>
<rect y="5.72729" width="12.9091" height="3.27273" rx="1.63636" fill="#6D73D2"/>
<circle cx="15.3637" cy="7.36366" r="1.63636" fill="#6D73D2"/>
<path d="M23.5795 9.13636C22.9659 9.13636 22.4375 8.99148 21.9943 8.7017C21.5511 8.41193 21.2102 8.01278 20.9716 7.50426C20.733 6.99574 20.6136 6.41477 20.6136 5.76136C20.6136 5.09659 20.7358 4.50994 20.9801 4.00142C21.2273 3.49006 21.571 3.09091 22.0114 2.80398C22.4545 2.5142 22.9716 2.36932 23.5625 2.36932C24.0227 2.36932 24.4375 2.45455 24.8068 2.625C25.1761 2.79545 25.4787 3.03409 25.7145 3.34091C25.9503 3.64773 26.0966 4.00568 26.1534 4.41477H25.1477C25.071 4.11648 24.9006 3.85227 24.6364 3.62216C24.375 3.3892 24.0227 3.27273 23.5795 3.27273C23.1875 3.27273 22.8438 3.375 22.5483 3.57955C22.2557 3.78125 22.027 4.06676 21.8622 4.43608C21.7003 4.80256 21.6193 5.23295 21.6193 5.72727C21.6193 6.23295 21.6989 6.6733 21.858 7.0483C22.0199 7.4233 22.2472 7.71449 22.5398 7.92188C22.8352 8.12926 23.1818 8.23295 23.5795 8.23295C23.8409 8.23295 24.0781 8.1875 24.2912 8.09659C24.5043 8.00568 24.6847 7.875 24.8324 7.70455C24.9801 7.53409 25.0852 7.32955 25.1477 7.09091H26.1534C26.0966 7.47727 25.956 7.82528 25.7315 8.13494C25.5099 8.44176 25.2159 8.68608 24.8494 8.8679C24.4858 9.04688 24.0625 9.13636 23.5795 9.13636ZM32.9759 2.45455L30.5554 9H29.5327L27.1122 2.45455H28.2031L30.0099 7.67045H30.0781L31.8849 2.45455H32.9759ZM47.0128 9L45.0185 2.45455H46.0753L47.4901 7.46591H47.5582L48.956 2.45455H50.0298L51.4105 7.44886H51.4787L52.8935 2.45455H53.9503L51.956 9H50.9673L49.5355 3.97159H49.4332L48.0014 9H47.0128ZM57.8015 9.13636C57.1708 9.13636 56.6268 8.99716 56.1694 8.71875C55.7148 8.4375 55.364 8.04545 55.1168 7.54261C54.8725 7.03693 54.7504 6.44886 54.7504 5.77841C54.7504 5.10795 54.8725 4.51705 55.1168 4.00568C55.364 3.49148 55.7077 3.09091 56.1481 2.80398C56.5913 2.5142 57.1083 2.36932 57.6992 2.36932C58.0401 2.36932 58.3768 2.42614 58.7092 2.53977C59.0415 2.65341 59.3441 2.83807 59.6168 3.09375C59.8896 3.34659 60.1069 3.68182 60.2688 4.09943C60.4308 4.51705 60.5117 5.03125 60.5117 5.64205V6.06818H55.4663V5.19886H59.489C59.489 4.82955 59.4151 4.5 59.2674 4.21023C59.1225 3.92045 58.9151 3.69176 58.6452 3.52415C58.3782 3.35653 58.0629 3.27273 57.6992 3.27273C57.2987 3.27273 56.9521 3.37216 56.6594 3.57102C56.3697 3.76705 56.1467 4.02273 55.9904 4.33807C55.8342 4.65341 55.756 4.99148 55.756 5.35227V5.93182C55.756 6.42614 55.8413 6.84517 56.0117 7.18892C56.185 7.52983 56.4251 7.78977 56.7319 7.96875C57.0387 8.14489 57.3952 8.23295 57.8015 8.23295C58.0657 8.23295 58.3043 8.19602 58.5174 8.12216C58.7333 8.04545 58.9194 7.93182 59.0756 7.78125C59.2319 7.62784 59.3526 7.4375 59.4379 7.21023L60.4094 7.48295C60.3072 7.8125 60.1353 8.10227 59.8938 8.35227C59.6523 8.59943 59.354 8.79261 58.9989 8.93182C58.6438 9.06818 58.2447 9.13636 57.8015 9.13636ZM62.1779 9V0.272727H63.1836V3.49432H63.2688C63.3427 3.38068 63.445 3.2358 63.5756 3.05966C63.7092 2.88068 63.8995 2.72159 64.1467 2.58239C64.3967 2.44034 64.7347 2.36932 65.1609 2.36932C65.712 2.36932 66.1978 2.5071 66.6183 2.78267C67.0387 3.05824 67.3668 3.44886 67.6026 3.95455C67.8384 4.46023 67.9563 5.05682 67.9563 5.74432C67.9563 6.4375 67.8384 7.03835 67.6026 7.54688C67.3668 8.05256 67.0401 8.4446 66.6225 8.72301C66.2049 8.99858 65.7234 9.13636 65.1779 9.13636C64.7575 9.13636 64.4208 9.06676 64.168 8.92756C63.9151 8.78551 63.7205 8.625 63.5842 8.44602C63.4478 8.2642 63.3427 8.11364 63.2688 7.99432H63.1495V9H62.1779ZM63.1665 5.72727C63.1665 6.22159 63.239 6.65767 63.3839 7.03551C63.5288 7.41051 63.7404 7.70455 64.0188 7.91761C64.2972 8.12784 64.6381 8.23295 65.0415 8.23295C65.462 8.23295 65.8129 8.12216 66.0941 7.90057C66.3782 7.67614 66.5913 7.375 66.7333 6.99716C66.8782 6.61648 66.9506 6.19318 66.9506 5.72727C66.9506 5.26705 66.8796 4.85227 66.7376 4.48295C66.5984 4.1108 66.3867 3.81676 66.1026 3.60085C65.8214 3.3821 65.4677 3.27273 65.0415 3.27273C64.6325 3.27273 64.2887 3.37642 64.0103 3.58381C63.7319 3.78835 63.5217 4.07528 63.3796 4.4446C63.2376 4.81108 63.1665 5.23864 63.1665 5.72727Z" fill="white"/>
<path d="M37.1499 2.45455V3.30682H33.7578V2.45455H37.1499ZM34.7464 0.886364H35.7521V7.125C35.7521 7.40909 35.7933 7.62216 35.8757 7.7642C35.9609 7.90341 36.0689 7.99716 36.1996 8.04545C36.3331 8.09091 36.4737 8.11364 36.6214 8.11364C36.7322 8.11364 36.8232 8.10795 36.8942 8.09659C36.9652 8.08239 37.022 8.07102 37.0646 8.0625L37.2692 8.96591C37.201 8.99148 37.1058 9.01705 36.9837 9.04261C36.8615 9.07102 36.7067 9.08523 36.5192 9.08523C36.2351 9.08523 35.9567 9.02415 35.6839 8.90199C35.4141 8.77983 35.1896 8.59375 35.0107 8.34375C34.8345 8.09375 34.7464 7.77841 34.7464 7.39773V0.886364ZM41.2514 9.13636C40.6605 9.13636 40.142 8.99574 39.696 8.71449C39.2528 8.43324 38.9062 8.03977 38.6562 7.53409C38.4091 7.02841 38.2855 6.4375 38.2855 5.76136C38.2855 5.07955 38.4091 4.48437 38.6562 3.97585C38.9062 3.46733 39.2528 3.07244 39.696 2.79119C40.142 2.50994 40.6605 2.36932 41.2514 2.36932C41.8423 2.36932 42.3594 2.50994 42.8026 2.79119C43.2486 3.07244 43.5952 3.46733 43.8423 3.97585C44.0923 4.48437 44.2173 5.07955 44.2173 5.76136C44.2173 6.4375 44.0923 7.02841 43.8423 7.53409C43.5952 8.03977 43.2486 8.43324 42.8026 8.71449C42.3594 8.99574 41.8423 9.13636 41.2514 9.13636ZM41.2514 8.23295C41.7003 8.23295 42.0696 8.1179 42.3594 7.88778C42.6491 7.65767 42.8636 7.35511 43.0028 6.98011C43.142 6.60511 43.2116 6.19886 43.2116 5.76136C43.2116 5.32386 43.142 4.91619 43.0028 4.53835C42.8636 4.16051 42.6491 3.85511 42.3594 3.62216C42.0696 3.3892 41.7003 3.27273 41.2514 3.27273C40.8026 3.27273 40.4332 3.3892 40.1435 3.62216C39.8537 3.85511 39.6392 4.16051 39.5 4.53835C39.3608 4.91619 39.2912 5.32386 39.2912 5.76136C39.2912 6.19886 39.3608 6.60511 39.5 6.98011C39.6392 7.35511 39.8537 7.65767 40.1435 7.88778C40.4332 8.1179 40.8026 8.23295 41.2514 8.23295Z" fill="#6D73D2"/>
</svg>
