<svg width="200" height="200" viewBox="0 0 100 100" fill="none" xmlns="http://www.w3.org/2000/svg">
  <defs>
    <radialGradient id="mg" cx="45%" cy="35%" r="65%">
      <stop offset="0%" stop-color="#A7F3D0"/>
      <stop offset="100%" stop-color="#059669"/>
    </radialGradient>
  </defs>
  <!-- Orb -->
  <ellipse cx="50" cy="54" rx="34" ry="32" fill="url(#mg)"/>
  <!-- Shine -->
  <ellipse cx="40" cy="40" rx="14" ry="10" fill="white" opacity="0.18" transform="rotate(-15 40 40)"/>
  <!-- Antenna -->
  <circle cx="50" cy="17" r="2.4" fill="white" opacity="0.75"/>
  <path d="M50 22 Q50 18 52 14" stroke="white" stroke-width="1.5" stroke-linecap="round" fill="none" opacity="0.6"/>
  <!-- Face: arch eyes -->
  <path d="M35 52 Q40 47 45 52" stroke="#064E3B" stroke-width="2.8" stroke-linecap="round" fill="none"/>
  <path d="M55 52 Q60 47 65 52" stroke="#064E3B" stroke-width="2.8" stroke-linecap="round" fill="none"/>
  <!-- Smile -->
  <path d="M40 59 Q50 69 60 59" stroke="#064E3B" stroke-width="2.3" stroke-linecap="round" fill="none"/>
  <!-- Blush -->
  <ellipse cx="50" cy="63" rx="5.2" ry="2.6" fill="#F472B6" opacity="0.7"/>
  <circle cx="33" cy="57" r="4.2" fill="#A7F3D0" opacity="0.45"/>
  <circle cx="67" cy="57" r="4.2" fill="#A7F3D0" opacity="0.45"/>
  <!-- Check badge -->
  <circle cx="78" cy="23" r="11" fill="white"/>
  <circle cx="78" cy="23" r="9" fill="white" stroke="#059669" stroke-width="2"/>
  <path d="M73 23 L77 27 L84 17" stroke="#059669" stroke-width="2.2" stroke-linecap="round" stroke-linejoin="round"/>
</svg>
